<svg width="23" height="23" viewBox="0 0 23 23" fill="none" xmlns="http://www.w3.org/2000/svg">
<path d="M15.1735 2.20837H7.48448C6.87692 2.17495 6.26926 2.27235 5.70258 2.49399C5.1359 2.71563 4.62341 3.05634 4.19974 3.49309C3.77607 3.92984 3.4511 4.45246 3.24679 5.02561C3.04248 5.59877 2.9636 6.20911 3.01548 6.81537V16.0154C2.96412 16.6245 3.04464 17.2375 3.25156 17.8127C3.45848 18.3879 3.78693 18.9118 4.21455 19.3486C4.64216 19.7854 5.1589 20.1249 5.72956 20.3441C6.30022 20.5632 6.9114 20.6567 7.52148 20.6184H15.2105C15.8174 20.6517 16.4245 20.5544 16.9907 20.3332C17.5569 20.112 18.069 19.7719 18.4927 19.336C18.9163 18.9 19.2415 18.3783 19.4464 17.806C19.6513 17.2337 19.7311 16.6241 19.6805 16.0184V6.81837C19.7327 6.20864 19.6529 5.59481 19.4463 5.01875C19.2398 4.4427 18.9114 3.91798 18.4836 3.48039C18.0558 3.04281 17.5386 2.70265 16.9673 2.48313C16.3961 2.26361 15.7842 2.16989 15.1735 2.20837V2.20837Z" stroke="#282828" stroke-width="1.5" stroke-miterlimit="10" stroke-linecap="round" stroke-linejoin="round"/>
<path d="M6.67847 7.90234V6.11334C6.67847 5.8372 6.90232 5.61334 7.17847 5.61334H15.5185C15.7946 5.61334 16.0185 5.8372 16.0185 6.11334V7.90234C16.0185 8.17849 15.7946 8.40234 15.5185 8.40234H7.17847C6.90232 8.40234 6.67847 8.17849 6.67847 7.90234Z" stroke="#282828"/>
<path d="M6.92847 6.11334V7.90234C6.92847 8.04041 7.0404 8.15234 7.17847 8.15234H15.5185C15.6565 8.15234 15.7685 8.04041 15.7685 7.90234V6.11334C15.7685 5.97527 15.6565 5.86334 15.5185 5.86334H7.17847C7.0404 5.86334 6.92847 5.97527 6.92847 6.11334Z" stroke="#282828" stroke-width="1.5"/>
<path d="M6.67847 12.3223V10.5333C6.67847 10.2571 6.90232 10.0333 7.17847 10.0333H11.0395C11.3156 10.0333 11.5395 10.2571 11.5395 10.5333V12.3223C11.5395 12.5984 11.3156 12.8223 11.0395 12.8223H7.17847C6.90232 12.8223 6.67847 12.5984 6.67847 12.3223Z" stroke="#282828"/>
<path d="M6.92847 10.5333V12.3223C6.92847 12.4603 7.0404 12.5723 7.17847 12.5723H11.0395C11.1775 12.5723 11.2895 12.4603 11.2895 12.3223V10.5333C11.2895 10.3952 11.1775 10.2833 11.0395 10.2833H7.17847C7.0404 10.2833 6.92847 10.3952 6.92847 10.5333Z" stroke="#282828" stroke-width="1.5"/>
<path d="M6.67847 16.7134V14.9244C6.67847 14.6482 6.90232 14.4244 7.17847 14.4244H11.0395C11.3156 14.4244 11.5395 14.6482 11.5395 14.9244V16.7134C11.5395 16.9895 11.3156 17.2134 11.0395 17.2134H7.17847C6.90232 17.2134 6.67847 16.9895 6.67847 16.7134Z" stroke="#282828"/>
<path d="M6.92847 14.9244V16.7134C6.92847 16.8515 7.0404 16.9634 7.17847 16.9634H11.0395C11.1775 16.9634 11.2895 16.8515 11.2895 16.7134V14.9244C11.2895 14.7863 11.1775 14.6744 11.0395 14.6744H7.17847C7.0404 14.6744 6.92847 14.7863 6.92847 14.9244Z" stroke="#282828" stroke-width="1.5"/>
<path d="M13.1194 12.3223V10.5333C13.1194 10.2571 13.3432 10.0333 13.6194 10.0333H15.5184C15.7945 10.0333 16.0184 10.2571 16.0184 10.5333V12.3223C16.0184 12.5984 15.7945 12.8223 15.5184 12.8223H13.6194C13.3432 12.8223 13.1194 12.5984 13.1194 12.3223Z" stroke="#282828"/>
<path d="M13.3694 10.5333V12.3223C13.3694 12.4603 13.4813 12.5723 13.6194 12.5723H15.5184C15.6565 12.5723 15.7684 12.4603 15.7684 12.3223V10.5333C15.7684 10.3952 15.6565 10.2833 15.5184 10.2833H13.6194C13.4813 10.2833 13.3694 10.3952 13.3694 10.5333Z" stroke="#282828" stroke-width="1.5"/>
<path d="M13.1194 16.7134V14.9244C13.1194 14.6482 13.3432 14.4244 13.6194 14.4244H15.5184C15.7945 14.4244 16.0184 14.6482 16.0184 14.9244V16.7134C16.0184 16.9895 15.7945 17.2134 15.5184 17.2134H13.6194C13.3432 17.2134 13.1194 16.9895 13.1194 16.7134Z" stroke="#282828"/>
<path d="M13.3694 14.9244V16.7134C13.3694 16.8515 13.4813 16.9634 13.6194 16.9634H15.5184C15.6565 16.9634 15.7684 16.8515 15.7684 16.7134V14.9244C15.7684 14.7863 15.6565 14.6744 15.5184 14.6744H13.6194C13.4813 14.6744 13.3694 14.7863 13.3694 14.9244Z" stroke="#282828" stroke-width="1.5"/>
</svg>
