<svg width="18" height="17" viewBox="0 0 18 17" fill="none" xmlns="http://www.w3.org/2000/svg">
<path d="M13.5182 2.48629C13.866 2.48629 14.1535 2.74478 14.199 3.08014L14.2053 3.17338L14.2052 13.9835L16.7668 11.4115C17.0345 11.1426 17.4696 11.1416 17.7385 11.4093C17.983 11.6527 18.0061 12.0343 17.8071 12.3038L17.7408 12.381L14.0051 16.134C13.9825 16.1561 13.9596 16.1762 13.9354 16.1947L14.0051 16.134C13.9714 16.1678 13.935 16.1974 13.8967 16.2228C13.8833 16.2311 13.8694 16.2396 13.8552 16.2477C13.842 16.2556 13.8286 16.2626 13.815 16.2691C13.8015 16.275 13.7879 16.281 13.7741 16.2866C13.7565 16.2941 13.7385 16.3005 13.7203 16.3061C13.7096 16.3089 13.6986 16.312 13.6875 16.3148C13.6677 16.3203 13.6478 16.3244 13.6278 16.3276C13.6184 16.3286 13.6086 16.33 13.5987 16.3312C13.5761 16.3343 13.5538 16.3358 13.5314 16.3362C13.527 16.3358 13.5226 16.3358 13.5182 16.3358L13.5048 16.3362C13.4824 16.3358 13.4601 16.3343 13.4378 16.3317L13.5182 16.3358C13.4808 16.3358 13.444 16.3328 13.4082 16.3271C13.3884 16.3244 13.3685 16.3203 13.3488 16.3153C13.3384 16.3122 13.328 16.3092 13.3176 16.3061C13.2979 16.3006 13.2784 16.2937 13.2591 16.2858C13.2485 16.281 13.2383 16.2765 13.2283 16.2719C13.2125 16.2651 13.1966 16.257 13.181 16.2482C13.1669 16.2396 13.1531 16.2311 13.1396 16.2222C13.129 16.2158 13.1186 16.2085 13.1083 16.2009L13.101 16.1947C13.0768 16.1762 13.0539 16.1561 13.0324 16.1346L13.0311 16.134L9.29545 12.381C9.02775 12.112 9.02876 11.677 9.2977 11.4093C9.54219 11.1659 9.92395 11.1446 10.1925 11.3448L10.2694 11.4115L12.831 13.9853L12.8311 3.17338C12.8311 2.79391 13.1387 2.48629 13.5182 2.48629ZM4.42267 0.00038137L4.43605 0C4.45844 0.00043016 4.48081 0.00194813 4.50308 0.0045539L4.42267 0.00038137C4.4601 0.00038137 4.49683 0.0033744 4.53264 0.0091342C4.55222 0.0118108 4.57188 0.0158563 4.59136 0.0207675C4.60282 0.0241288 4.6145 0.0274066 4.62605 0.0309809C4.64409 0.0360671 4.66155 0.0422495 4.67879 0.0491583C4.69125 0.0547069 4.70387 0.0602217 4.71628 0.0660975C4.73104 0.0724772 4.74556 0.0799843 4.75987 0.088044C4.77211 0.0955842 4.78424 0.10293 4.79611 0.110632C4.80833 0.117895 4.82056 0.126396 4.83257 0.13534L4.90973 0.202238L8.64542 3.95523C8.91312 4.22417 8.91212 4.65921 8.64318 4.92691C8.39868 5.17027 8.01692 5.19157 7.7484 4.99137L7.6715 4.92466L5.10914 2.34982L5.10975 13.1628C5.10975 13.5423 4.80213 13.8499 4.42267 13.8499C4.07483 13.8499 3.78736 13.5914 3.74186 13.2561L3.73559 13.1628L3.73498 2.35074L1.17404 4.92466C0.930678 5.16916 0.549021 5.19221 0.279581 4.99326L0.202366 4.92691C-0.0421267 4.68354 -0.065184 4.30189 0.133772 4.03245L0.20012 3.95523L3.93581 0.202238L3.97627 0.165138C3.98577 0.157011 3.99549 0.149138 4.00543 0.14153L3.93581 0.202238C3.96951 0.168377 4.00587 0.138765 4.0442 0.113403C4.05758 0.10507 4.07148 0.0965623 4.0857 0.0885465C4.0989 0.0805907 4.11232 0.0736099 4.12591 0.0671016C4.13933 0.0611636 4.15294 0.0551719 4.16677 0.0496172C4.18434 0.0421022 4.20237 0.0357395 4.22058 0.0301506C4.23166 0.027175 4.24301 0.024003 4.25447 0.021119C4.27293 0.0160493 4.29158 0.0121735 4.31035 0.00907828C4.32163 0.00766698 4.33269 0.00612799 4.34383 0.00485541C4.36504 0.00194166 4.3868 0.000465429 4.40857 1.82037e-05C4.41338 0.000427573 4.41802 0.00038137 4.42267 0.00038137Z" fill="#262A31"/>
</svg>
