<svg width="23" height="23" viewBox="0 0 23 23" fill="none" xmlns="http://www.w3.org/2000/svg">
<path d="M2.5 6C2.5 3.375 2.528 2.5 6 2.5C9.472 2.5 9.5 3.375 9.5 6C9.5 8.625 9.511 9.5 6 9.5C2.489 9.5 2.5 8.625 2.5 6Z" stroke="black" stroke-width="1.5" stroke-miterlimit="10" stroke-linecap="round" stroke-linejoin="round"/>
<path d="M13.5 6C13.5 3.375 13.528 2.5 17 2.5C20.472 2.5 20.5 3.375 20.5 6C20.5 8.625 20.511 9.5 17 9.5C13.489 9.5 13.5 8.625 13.5 6Z" stroke="black" stroke-width="1.5" stroke-miterlimit="10" stroke-linecap="round" stroke-linejoin="round"/>
<path d="M2.5 17C2.5 14.375 2.528 13.5 6 13.5C9.472 13.5 9.5 14.375 9.5 17C9.5 19.625 9.511 20.5 6 20.5C2.489 20.5 2.5 19.625 2.5 17Z" stroke="black" stroke-width="1.5" stroke-miterlimit="10" stroke-linecap="round" stroke-linejoin="round"/>
<path d="M13.5 17C13.5 14.375 13.528 13.5 17 13.5C20.472 13.5 20.5 14.375 20.5 17C20.5 19.625 20.511 20.5 17 20.5C13.489 20.5 13.5 19.625 13.5 17Z" stroke="black" stroke-width="1.5" stroke-miterlimit="10" stroke-linecap="round" stroke-linejoin="round"/>
</svg>
