<svg width="23" height="23" viewBox="0 0 23 23" fill="none" xmlns="http://www.w3.org/2000/svg">
<path d="M4.24635 6.50651C4.24635 5.90677 4.48453 5.33157 4.90852 4.90739C5.33251 4.48321 5.9076 4.24478 6.50735 4.24451H7.53635C8.13319 4.24405 8.70571 4.00793 9.12935 3.58751L9.84835 2.86751C10.0578 2.65672 10.3068 2.48926 10.581 2.37472C10.8552 2.26018 11.1493 2.2008 11.4465 2.19996C11.7437 2.19912 12.0381 2.25685 12.3129 2.36985C12.5878 2.48285 12.8377 2.6489 13.0484 2.85851V2.85851L13.0574 2.86651L13.7774 3.58651C14.2007 4.0073 14.7734 4.24348 15.3703 4.24351H16.4014C16.6984 4.24351 16.9925 4.30202 17.267 4.4157C17.5414 4.52937 17.7908 4.69599 18.0008 4.90604C18.2109 5.11608 18.3775 5.36544 18.4912 5.63988C18.6048 5.91432 18.6633 6.20846 18.6633 6.50551V7.53351C18.6633 8.13074 18.8995 8.70375 19.3203 9.12751L20.0403 9.84751C20.2512 10.0569 20.4187 10.3058 20.5334 10.58C20.648 10.8542 20.7075 11.1483 20.7084 11.4454C20.7093 11.7426 20.6517 12.0371 20.5388 12.312C20.4259 12.5868 20.2599 12.8368 20.0504 13.0475V13.0475L20.0413 13.0565L19.3214 13.7765C18.9004 14.1994 18.6642 14.7718 18.6643 15.3685V16.4005C18.6636 17 18.4247 17.5746 18.0004 17.998C17.576 18.4215 17.0008 18.659 16.4014 18.6585H15.3684C14.7713 18.6587 14.1985 18.8953 13.7754 19.3165L13.0554 20.0355C12.8461 20.2466 12.5974 20.4144 12.3232 20.5293C12.0491 20.6442 11.7551 20.7039 11.4578 20.705C11.1606 20.7061 10.8661 20.6486 10.5911 20.5358C10.3162 20.423 10.0661 20.2571 9.85535 20.0475V20.0475L9.84635 20.0385L9.12735 19.3195C8.70393 18.8986 8.13136 18.6621 7.53435 18.6615H6.50735C5.9077 18.6615 5.3326 18.4233 4.90858 17.9993C4.48456 17.5753 4.24635 17.0002 4.24635 16.4005V15.3665C4.24612 14.7697 4.00953 14.1973 3.58835 13.7745L2.86935 13.0545C2.65818 12.8453 2.49036 12.5965 2.3755 12.3223C2.26064 12.0482 2.20099 11.754 2.19996 11.4568C2.19894 11.1595 2.25657 10.865 2.36955 10.5901C2.48252 10.3151 2.64863 10.0652 2.85835 9.85451V9.85451L2.86735 9.84551L3.58635 9.12551C4.00765 8.70197 4.24421 8.12891 4.24435 7.53151V6.50651" stroke="#282828" stroke-width="1.5" stroke-miterlimit="10" stroke-linecap="round" stroke-linejoin="round"/>
<path d="M8.88232 14.0223L14.0223 8.88232" stroke="#282828" stroke-width="1.5" stroke-miterlimit="10" stroke-linecap="round" stroke-linejoin="round"/>
</svg>
