<svg width="28" height="21" viewBox="0 0 28 21" fill="none" xmlns="http://www.w3.org/2000/svg">
<path d="M12.6032 16.8591C13.0406 16.8591 13.4342 17.2092 13.4342 17.6906C13.4342 18.1282 13.0843 18.5221 12.6032 18.5221C12.1658 18.5221 11.7721 18.172 11.7721 17.6906C11.7721 17.2092 12.1658 16.8591 12.6032 16.8591ZM25.463 11.7828C25.0256 11.7828 24.6319 11.4327 24.6319 10.9513C24.6319 10.5137 24.9819 10.1198 25.463 10.1198C25.9004 10.1198 26.2941 10.4699 26.2941 10.9513C26.2941 11.3889 25.9004 11.7828 25.463 11.7828ZM25.463 8.41312C24.0633 8.41312 22.926 9.55093 22.926 10.9513C22.926 11.2139 22.9698 11.4764 23.0573 11.739L14.7027 16.2027C14.2216 15.5025 13.4342 15.1087 12.6032 15.1087C11.6409 15.1087 10.766 15.6776 10.3286 16.509L2.80518 12.5705C2.01784 12.1329 1.40547 10.8638 1.49295 9.63845C1.53669 9.02579 1.7554 8.54441 2.06158 8.36936C2.28029 8.23807 2.49899 8.28184 2.80518 8.41312L2.84892 8.45688C4.86101 9.50716 11.3784 12.9206 11.6409 13.0519C12.0783 13.2269 12.297 13.3144 13.0406 12.9643L26.5128 5.96247C26.7315 5.87494 26.9502 5.6999 26.9502 5.39356C26.9502 4.99971 26.5565 4.82466 26.5565 4.82466C25.7692 4.47457 24.5882 3.90567 23.4509 3.38052C21.0014 2.24272 18.202 0.929868 16.9773 0.273443C15.9275 -0.295459 15.0527 0.185919 14.9214 0.273443L14.6153 0.404728C9.06015 3.20548 1.71166 6.8377 1.27425 7.10027C0.530649 7.53789 0.0494977 8.45688 0.00575671 9.59469C-0.0817253 11.3889 0.836836 13.2707 2.14907 13.9271L10.1099 18.0407C10.2849 19.266 11.3784 20.2288 12.6032 20.2288C14.0029 20.2288 15.0964 19.1347 15.1401 17.7344L23.8883 13.0081C24.3258 13.3582 24.8944 13.5332 25.463 13.5332C26.8627 13.5332 28 12.3954 28 10.9951C28 9.55093 26.8627 8.41312 25.463 8.41312Z" fill="#B3B3B3"/>
</svg>
