<svg width="23" height="23" viewBox="0 0 23 23" fill="none" xmlns="http://www.w3.org/2000/svg">
<path d="M16.173 8.65321V6.50421C16.1581 5.30622 15.6724 4.1622 14.8209 3.31939C13.9694 2.47657 12.8204 2.00264 11.6224 2.00001C10.4243 1.99738 9.27327 2.46627 8.41807 3.30535C7.56288 4.14442 7.07217 5.2863 7.052 6.48421L7.052 8.65321" stroke="#282828" stroke-width="1.5" stroke-miterlimit="10" stroke-linecap="round" stroke-linejoin="round"/>
<path d="M15.433 20.4533H7.792C6.7863 20.4533 5.82179 20.0538 5.11065 19.3427C4.39951 18.6315 4 17.667 4 16.6613V12.3723C4 11.3666 4.39951 10.4021 5.11065 9.69097C5.82179 8.97984 6.7863 8.58032 7.792 8.58032H15.433C15.931 8.58032 16.4241 8.67841 16.8841 8.86897C17.3442 9.05954 17.7622 9.33885 18.1143 9.69097C18.4665 10.0431 18.7458 10.4611 18.9364 10.9212C19.1269 11.3813 19.225 11.8743 19.225 12.3723V16.6613C19.225 17.1593 19.1269 17.6524 18.9364 18.1125C18.7458 18.5725 18.4665 18.9906 18.1143 19.3427C17.7622 19.6948 17.3442 19.9741 16.8841 20.1647C16.4241 20.3552 15.931 20.4533 15.433 20.4533V20.4533Z" stroke="#282828" stroke-width="1.5" stroke-miterlimit="10" stroke-linecap="round" stroke-linejoin="round"/>
<path d="M11.613 13.4062V15.6272" stroke="#282828" stroke-width="1.5" stroke-miterlimit="10" stroke-linecap="round" stroke-linejoin="round"/>
</svg>
