<svg width="22" height="17" viewBox="0 0 22 17" fill="none" xmlns="http://www.w3.org/2000/svg">
<path d="M22 2.01237C21.1906 2.35376 20.3206 2.58438 19.4077 2.68814C20.3395 2.15702 21.0553 1.31599 21.3922 0.313781C20.5201 0.80568 19.5541 1.16276 18.526 1.35521C17.7027 0.521081 16.5297 0 15.2315 0C12.7389 0 10.7178 1.92147 10.7178 4.29155C10.7178 4.62792 10.7578 4.95551 10.8348 5.2696C7.08354 5.09064 3.75779 3.38201 1.53161 0.785492C1.14309 1.41932 0.920444 2.1565 0.920444 2.94304C0.920444 4.43202 1.71729 5.7456 2.92839 6.51519C2.18853 6.49291 1.49256 6.29984 0.884034 5.97842C0.883521 5.99631 0.883521 6.0143 0.883521 6.03239C0.883521 8.1117 2.43937 9.84616 4.50418 10.2407C4.12545 10.3388 3.7267 10.3912 3.31507 10.3912C3.02423 10.3912 2.74154 10.3642 2.46588 10.3142C3.0403 12.0192 4.70713 13.26 6.68229 13.2945C5.13756 14.4456 3.19144 15.1318 1.07668 15.1318C0.712361 15.1318 0.353101 15.1114 0 15.0717C1.99749 16.2895 4.36998 17 6.9189 17C15.2209 17 19.761 10.4605 19.761 4.7891C19.761 4.60303 19.7566 4.418 19.7479 4.23381C20.6297 3.62885 21.3948 2.87306 21.9999 2.01237H22Z" fill="#B3B3B3"/>
</svg>
