<svg width="6" height="12" viewBox="0 0 6 12" fill="none" xmlns="http://www.w3.org/2000/svg">
<path fill-rule="evenodd" clip-rule="evenodd" d="M4.16089 5.99482C4.07088 5.86292 3.92168 5.69238 3.64322 5.37907L0.234697 1.54401C-0.10057 1.16679 -0.0733915 0.58299 0.295403 0.240061C0.664197 -0.102868 1.23495 -0.0750679 1.57022 0.302154L4.97875 4.13721C4.98905 4.14881 4.99935 4.1604 5.00965 4.17197C5.24499 4.43666 5.47596 4.69642 5.64092 4.93816C5.82786 5.21211 6 5.55965 6 6C6 6.44035 5.82786 6.78789 5.64092 7.06184C5.47596 7.30357 5.24499 7.56334 5.00965 7.82803C4.99936 7.8396 4.98905 7.85119 4.97875 7.86278L1.57022 11.6978C1.23495 12.0751 0.664196 12.1029 0.295402 11.7599C-0.0733919 11.417 -0.100571 10.8332 0.234697 10.456L3.64322 6.62093C3.92168 6.30762 4.07088 6.13708 4.16089 6.00518C4.16209 6.00342 4.16326 6.00169 4.1644 6C4.16326 5.99831 4.16209 5.99658 4.16089 5.99482Z" fill="#7D7D7D"/>
</svg>
