<svg width="23" height="23" viewBox="0 0 23 23" fill="none" xmlns="http://www.w3.org/2000/svg">
<path d="M19.661 8.21533C19.6535 7.91535 19.5747 7.62146 19.4311 7.35801C19.2874 7.09455 19.0831 6.8691 18.835 6.70033L13.18 2.54333C12.6856 2.18997 12.0931 2 11.4855 2C10.8778 2 10.2853 2.18997 9.79096 2.54333L4.16196 6.71233C3.91339 6.87976 3.70857 7.10434 3.56468 7.36724C3.42079 7.63015 3.34201 7.92371 3.33496 8.22333L19.661 8.21533Z" stroke="#282828" stroke-width="1.5" stroke-miterlimit="10" stroke-linecap="round" stroke-linejoin="round"/>
<path d="M4.69995 16.9575H18.295C19.1234 16.9575 19.795 17.6291 19.795 18.4575V19.2155C19.795 20.0439 19.1234 20.7155 18.295 20.7155H4.69995C3.87152 20.7155 3.19995 20.0439 3.19995 19.2155V18.4575C3.19995 17.6291 3.87152 16.9575 4.69995 16.9575Z" stroke="#282828"/>
<path d="M18.295 17.2075H4.69995C4.0096 17.2075 3.44995 17.7672 3.44995 18.4575V19.2155C3.44995 19.9059 4.0096 20.4655 4.69995 20.4655H18.295C18.9853 20.4655 19.545 19.9059 19.545 19.2155V18.4575C19.545 17.7672 18.9853 17.2075 18.295 17.2075Z" stroke="#282828" stroke-width="1.5"/>
<path d="M5.40283 14.3394V11.0504C5.40283 10.7742 5.62669 10.5504 5.90283 10.5504H8.66083C8.93697 10.5504 9.16083 10.7742 9.16083 11.0504V14.3394C9.16083 14.6155 8.93697 14.8394 8.66083 14.8394H5.90283C5.62669 14.8394 5.40283 14.6155 5.40283 14.3394Z" stroke="#282828"/>
<path d="M5.65283 11.0504V14.3394C5.65283 14.4774 5.76476 14.5894 5.90283 14.5894H8.66083C8.7989 14.5894 8.91083 14.4774 8.91083 14.3394V11.0504C8.91083 10.9123 8.7989 10.8004 8.66083 10.8004H5.90283C5.76476 10.8004 5.65283 10.9123 5.65283 11.0504Z" stroke="#282828" stroke-width="1.5"/>
<path d="M13.835 14.3394V11.0504C13.835 10.7742 14.0588 10.5504 14.335 10.5504H17.093C17.3691 10.5504 17.593 10.7742 17.593 11.0504V14.3394C17.593 14.6155 17.3691 14.8394 17.093 14.8394H14.335C14.0588 14.8394 13.835 14.6155 13.835 14.3394Z" stroke="#282828"/>
<path d="M14.085 11.0504V14.3394C14.085 14.4774 14.1969 14.5894 14.335 14.5894H17.093C17.231 14.5894 17.343 14.4774 17.343 14.3394V11.0504C17.343 10.9123 17.231 10.8004 17.093 10.8004H14.335C14.1969 10.8004 14.085 10.9123 14.085 11.0504Z" stroke="#282828" stroke-width="1.5"/>
</svg>
