<svg width="23" height="23" viewBox="0 0 23 23" fill="none" xmlns="http://www.w3.org/2000/svg">
<path d="M14.5647 15.064C12.9005 15.058 11.3068 14.392 10.1332 13.2121C8.95965 12.0322 8.30221 10.4349 8.30519 8.77075C8.30817 7.10661 8.97133 5.51165 10.1491 4.33598C11.3269 3.16031 12.923 2.5 14.5872 2.5C16.2513 2.5 17.8475 3.16031 19.0252 4.33598C20.203 5.51165 20.8662 7.10661 20.8692 8.77075C20.8721 10.4349 20.2147 12.0322 19.0411 13.2121C17.8676 14.392 16.2738 15.058 14.6097 15.064H14.5647Z" stroke="#282828" stroke-width="1.5" stroke-miterlimit="10" stroke-linecap="round" stroke-linejoin="round"/>
<path d="M8.2595 20.456C6.59537 20.4501 5.0016 19.7841 3.82804 18.6042C2.65448 17.4243 1.99703 15.827 2.00001 14.1628C2.00299 12.4987 2.66616 10.9037 3.84393 9.72807C5.02171 8.5524 6.61786 7.89209 8.282 7.89209C9.94614 7.89209 11.5423 8.5524 12.7201 9.72807C13.8978 10.9037 14.561 12.4987 14.564 14.1628C14.567 15.827 13.9095 17.4243 12.736 18.6042C11.5624 19.7841 9.96863 20.4501 8.3045 20.456H8.2595Z" stroke="#282828" stroke-width="1.5" stroke-miterlimit="10" stroke-linecap="round" stroke-linejoin="round"/>
</svg>
