<svg width="21" height="17" viewBox="0 0 21 21" fill="none" xmlns="http://www.w3.org/2000/svg">
<path d="M5.27937 7.53932L5.27937 7.53939H5.28314H10.0065C10.1623 7.53939 10.3116 7.47742 10.4217 7.36716C10.5318 7.2569 10.5937 7.10738 10.5937 6.95152C10.5937 6.79565 10.5318 6.64614 10.4217 6.53588C10.3116 6.42562 10.1623 6.36365 10.0065 6.36365H5.28485C4.77172 6.34621 4.26069 6.43751 3.78523 6.63157C3.30923 6.82585 2.87964 7.11874 2.52465 7.49099C2.16966 7.86325 1.89729 8.30646 1.7254 8.79155C1.55396 9.27536 1.48634 9.78993 1.52693 10.3017V15.5509C1.48677 16.0622 1.55476 16.5763 1.72645 17.0596C1.89859 17.5441 2.1711 17.9867 2.52611 18.3584C2.88111 18.73 3.31058 19.0223 3.78635 19.216C4.26155 19.4095 4.77221 19.5003 5.28488 19.4824H10.8694C11.3821 19.5003 11.8927 19.4095 12.3679 19.216C12.8437 19.0223 13.2732 18.73 13.6282 18.3584C13.9832 17.9867 14.2557 17.5441 14.4278 17.0596C14.5995 16.5763 14.6675 16.0622 14.6273 15.5509V10.976C14.6273 10.8201 14.5655 10.6706 14.4554 10.5603C14.3453 10.4501 14.196 10.3881 14.0402 10.3881C13.8844 10.3881 13.7351 10.4501 13.625 10.5603C13.5149 10.6706 13.453 10.8201 13.453 10.976V15.5548H13.4526L13.4535 15.5647C13.4888 15.92 13.4476 16.2787 13.3327 16.6167C13.2178 16.9547 13.0319 17.2641 12.7876 17.524C12.5432 17.7839 12.246 17.9883 11.9161 18.1235C11.5862 18.2587 11.2312 18.3214 10.875 18.3076L10.875 18.3075H10.8711H5.28314C4.47853 18.3075 3.83617 18.0424 3.3945 17.5726C2.95216 17.1021 2.70122 16.4155 2.70122 15.5548V10.2977H2.70172L2.70073 10.2877C2.66516 9.93209 2.70611 9.57297 2.82082 9.23453C2.93553 8.8961 3.12133 8.58624 3.3657 8.3258C3.61006 8.06537 3.90731 7.86042 4.23741 7.72476C4.56752 7.5891 4.92281 7.52586 5.27937 7.53932Z" fill="#B3B3B3" stroke="#B3B3B3" stroke-width="0.2"/>
<path d="M16.1339 8.98092C15.9608 8.98081 15.7949 8.91202 15.6726 8.78966C15.5502 8.66731 15.4814 8.50138 15.4813 8.32834L15.4856 6.31211L9.19189 12.6058C9.06943 12.7283 8.90334 12.7971 8.73016 12.7971C8.55698 12.7971 8.39089 12.7283 8.26843 12.6058C8.14597 12.4834 8.07717 12.3173 8.07717 12.1441C8.07717 11.9709 8.14597 11.8048 8.26843 11.6824L14.5634 5.38741L12.5465 5.3911C12.4589 5.39436 12.3715 5.37993 12.2896 5.34868C12.2077 5.31743 12.1329 5.27 12.0697 5.20921C12.0065 5.14843 11.9561 5.07554 11.9217 4.99489C11.8873 4.91424 11.8695 4.82748 11.8693 4.7398C11.8691 4.65211 11.8866 4.56529 11.9208 4.48451C11.9549 4.40373 12.0049 4.33065 12.0679 4.26963C12.1309 4.20861 12.2055 4.16089 12.2873 4.12933C12.3691 4.09777 12.4564 4.08302 12.5441 4.08594L16.1425 4.07794C16.2285 4.07748 16.3137 4.09408 16.3933 4.12678C16.4728 4.15947 16.545 4.20761 16.6058 4.26842C16.6666 4.32922 16.7148 4.40148 16.7475 4.48101C16.7802 4.56054 16.7968 4.64576 16.7963 4.73175L16.7877 8.32957C16.7876 8.50261 16.7188 8.66854 16.5964 8.7909C16.4741 8.91326 16.3082 8.98205 16.1351 8.98215L16.1339 8.98092Z" fill="#B3B3B3"/>
</svg>
