<svg width="16" height="16" viewBox="0 0 16 16" fill="none" xmlns="http://www.w3.org/2000/svg">
<path d="M8.01112 4.93441C7.82045 4.93441 7.65912 4.86841 7.52712 4.73641C7.39512 4.60441 7.32912 4.44307 7.32912 4.25241C7.32912 4.06174 7.39512 3.90041 7.52712 3.76841C7.65912 3.63641 7.82045 3.57041 8.01112 3.57041C8.19445 3.57041 8.34845 3.63641 8.47312 3.76841C8.60512 3.90041 8.67112 4.06174 8.67112 4.25241C8.67112 4.44307 8.60512 4.60441 8.47312 4.73641C8.34845 4.86841 8.19445 4.93441 8.01112 4.93441ZM8.49512 5.91341V11.9414H7.49412V5.91341H8.49512Z" fill="#7D7D7D"/>
<circle cx="8" cy="8" r="7.5" stroke="#7D7D7D"/>
</svg>
