<svg width="38" height="28" viewBox="0 0 38 28" fill="none" xmlns="http://www.w3.org/2000/svg">
<path d="M12.3714 13.8847C12.2914 13.7483 12.2914 13.5791 12.3714 13.4409L19.2466 1.66206C19.4176 1.36922 19.2066 1 18.8665 1H13.3117C13.1553 1 13.0116 1.08367 12.9316 1.21826L7.45871 10.5962C7.36413 10.7563 7.11858 10.6908 7.11858 10.5034V1.44016C7.11858 1.19825 6.92215 1 6.67842 1H1.44016C1.19643 1 1 1.19643 1 1.44016V25.8854C1 26.1273 1.19643 26.3256 1.44016 26.3256H6.68024C6.92215 26.3256 7.1204 26.1291 7.1204 25.8854V16.8221C7.1204 16.6366 7.36595 16.5693 7.46053 16.7293L12.9334 26.1073C13.0116 26.2419 13.1571 26.3256 13.3136 26.3256H18.8683C19.2084 26.3256 19.4194 25.9581 19.2484 25.6635L12.3714 13.8847Z" fill="#262A31"/>
<path d="M24.7593 1H19.2045C19.0481 1 18.9044 1.08367 18.8244 1.21826L11.6909 13.4409C11.6109 13.5773 11.6109 13.7464 11.6909 13.8847L18.8262 26.1073C18.9044 26.2419 19.0499 26.3256 19.2063 26.3256H24.7611C25.1012 26.3256 25.3122 25.9581 25.1412 25.6635L18.266 13.8829C18.186 13.7464 18.186 13.5773 18.266 13.4391L25.1376 1.66206C25.3085 1.36741 25.0976 1 24.7593 1Z" fill="#3D464F"/>
<path d="M30.6419 1H25.0872C24.9308 1 24.7871 1.08367 24.7071 1.21826L17.5717 13.4409C17.4917 13.5773 17.4917 13.7464 17.5717 13.8847L24.7071 26.1073C24.7853 26.2419 24.9308 26.3256 25.0872 26.3256H30.6419C30.9821 26.3256 31.193 25.9581 31.0221 25.6635L24.1469 13.8829C24.0668 13.7464 24.0668 13.5773 24.1469 13.4391L31.0221 1.66206C31.193 1.36741 30.9802 1 30.6419 1Z" fill="#535E6D"/>
<path d="M36.5287 1H30.9739C30.8175 1 30.6738 1.08367 30.5938 1.21826L23.4585 13.4409C23.3784 13.5773 23.3784 13.7464 23.4585 13.8847L30.5938 26.1073C30.672 26.2419 30.8175 26.3256 30.9739 26.3256H36.5287C36.8688 26.3256 37.0798 25.9581 36.9088 25.6635L30.0336 13.8829C29.9535 13.7464 29.9535 13.5773 30.0336 13.4391L36.9088 1.66206C37.0798 1.36741 36.8688 1 36.5287 1Z" fill="#6D7889"/>
</svg>
