<svg width="152" height="31" viewBox="0 0 152 31" fill="none" xmlns="http://www.w3.org/2000/svg">
<path d="M11.3714 14.7216C11.2914 14.5852 11.2914 14.416 11.3714 14.2778L18.2466 2.49897C18.4176 2.20614 18.2066 1.83691 17.8665 1.83691H12.3117C12.1553 1.83691 12.0116 1.92058 11.9316 2.05518L6.45871 11.4331C6.36413 11.5932 6.11858 11.5277 6.11858 11.3404V2.27707C6.11858 2.03517 5.92215 1.83691 5.67842 1.83691H0.44016C0.196435 1.83691 0 2.03335 0 2.27707V26.7223C0 26.9642 0.196435 27.1625 0.44016 27.1625H5.68024C5.92215 27.1625 6.1204 26.966 6.1204 26.7223V17.659C6.1204 17.4735 6.36595 17.4062 6.46053 17.5663L11.9334 26.9442C12.0116 27.0788 12.1571 27.1625 12.3136 27.1625H17.8683C18.2084 27.1625 18.4194 26.7951 18.2484 26.5004L11.3714 14.7216Z" fill="#262A31"/>
<path d="M23.7593 1.83691H18.2045C18.0481 1.83691 17.9044 1.92058 17.8244 2.05518L10.6909 14.2778C10.6109 14.4142 10.6109 14.5834 10.6909 14.7216L17.8262 26.9442C17.9044 27.0788 18.0499 27.1625 18.2063 27.1625H23.7611C24.1012 27.1625 24.3122 26.7951 24.1412 26.5004L17.266 14.7198C17.186 14.5834 17.186 14.4142 17.266 14.276L24.1376 2.49897C24.3085 2.20432 24.0976 1.83691 23.7593 1.83691Z" fill="#3D464F"/>
<path d="M29.6419 1.83691H24.0872C23.9308 1.83691 23.7871 1.92058 23.7071 2.05518L16.5717 14.2778C16.4917 14.4142 16.4917 14.5834 16.5717 14.7216L23.7071 26.9442C23.7853 27.0788 23.9308 27.1625 24.0872 27.1625H29.6419C29.9821 27.1625 30.193 26.7951 30.0221 26.5004L23.1469 14.7198C23.0668 14.5834 23.0668 14.4142 23.1469 14.276L30.0221 2.49897C30.193 2.20432 29.9802 1.83691 29.6419 1.83691Z" fill="#535E6D"/>
<path d="M35.5287 1.83691H29.9739C29.8175 1.83691 29.6738 1.92058 29.5938 2.05518L22.4585 14.2778C22.3784 14.4142 22.3784 14.5834 22.4585 14.7216L29.5938 26.9442C29.672 27.0788 29.8175 27.1625 29.9739 27.1625H35.5287C35.8688 27.1625 36.0798 26.7951 35.9088 26.5004L29.0336 14.7198C28.9535 14.5834 28.9535 14.4142 29.0336 14.276L35.9088 2.49897C36.0798 2.20432 35.8688 1.83691 35.5287 1.83691Z" fill="#6D7889"/>
<path d="M49.0991 10.3641V8.58212H44.9141V30.1281H49.1261V21.4071H49.1801C50.5301 23.0541 52.4201 23.2701 53.4461 23.2701C57.6311 23.2701 60.4121 19.5171 60.4121 15.7641C60.4121 12.1191 57.7931 8.31212 53.5541 8.31212C52.5551 8.31212 50.5301 8.50112 49.1531 10.3641H49.0991ZM49.0181 15.7641C49.0181 13.6041 50.6111 12.1191 52.5551 12.1191C54.5531 12.1191 56.1461 13.6041 56.1461 15.7641C56.1461 17.9511 54.5531 19.4631 52.5821 19.4631C50.6111 19.4631 49.0181 17.9511 49.0181 15.7641Z" fill="#262A31"/>
<path d="M71.1998 8.52812C71.0378 8.47412 70.6598 8.42012 70.3628 8.42012C68.3378 8.42012 66.8528 9.55412 66.2858 10.7961H66.2588V8.58212H62.0738V23.0001H66.2858V16.8981C66.2858 14.5221 67.3118 12.6051 70.2008 12.6051C70.5788 12.6051 70.8758 12.6321 71.1998 12.6861V8.52812Z" fill="#262A31"/>
<path d="M70.9861 15.8181C70.9861 20.1651 74.4691 23.3241 78.8431 23.3241C83.1901 23.3241 86.7271 20.0841 86.7271 15.7371C86.7271 11.4441 83.2441 8.25812 78.8971 8.25812C74.5231 8.25812 70.9861 11.5251 70.9861 15.8181ZM75.3061 15.7641C75.3061 13.6041 76.8721 12.0921 78.8431 12.0921C80.8141 12.0921 82.4071 13.6041 82.4071 15.7641C82.4071 17.9511 80.8411 19.4631 78.8701 19.4631C76.8991 19.4631 75.3061 17.9511 75.3061 15.7641Z" fill="#262A31"/>
<path d="M97.2877 19.4361C96.9367 19.5171 96.5317 19.5441 96.3157 19.5441C94.7227 19.5441 93.8047 18.9501 93.8047 17.2491V12.2271H97.3687V8.58212H93.8047V4.07312H89.6467V8.58212H87.0007V12.2271H89.5927V17.7621C89.5927 21.0561 91.4827 23.1891 95.3167 23.1891C95.9647 23.1891 96.5587 23.1351 97.2877 22.9191V19.4361Z" fill="#262A31"/>
<path d="M98.1074 15.8181C98.1074 20.1651 101.59 23.3241 105.964 23.3241C110.311 23.3241 113.848 20.0841 113.848 15.7371C113.848 11.4441 110.365 8.25812 106.018 8.25812C101.644 8.25812 98.1074 11.5251 98.1074 15.8181ZM102.427 15.7641C102.427 13.6041 103.993 12.0921 105.964 12.0921C107.935 12.0921 109.528 13.6041 109.528 15.7641C109.528 17.9511 107.962 19.4631 105.991 19.4631C104.02 19.4631 102.427 17.9511 102.427 15.7641Z" fill="#262A31"/>
<path d="M122.384 23.3241C125.489 23.3241 128.162 21.8931 129.323 18.8421L125.597 17.3031C125.138 18.3831 124.22 19.4361 122.411 19.4361C120.332 19.4361 118.955 17.8971 118.955 15.7641C118.955 13.4691 120.548 12.1191 122.411 12.1191C124.22 12.1191 125.03 13.1451 125.516 14.2521L129.215 12.7131C128.27 9.79712 125.516 8.25812 122.411 8.25812C118.091 8.25812 114.635 11.5521 114.635 15.8181C114.635 20.1111 117.848 23.3241 122.384 23.3241Z" fill="#262A31"/>
<path d="M129.869 15.8181C129.869 20.1651 133.352 23.3241 137.726 23.3241C142.073 23.3241 145.61 20.0841 145.61 15.7371C145.61 11.4441 142.127 8.25812 137.78 8.25812C133.406 8.25812 129.869 11.5251 129.869 15.8181ZM134.189 15.7641C134.189 13.6041 135.755 12.0921 137.726 12.0921C139.697 12.0921 141.29 13.6041 141.29 15.7641C141.29 17.9511 139.724 19.4631 137.753 19.4631C135.782 19.4631 134.189 17.9511 134.189 15.7641Z" fill="#262A31"/>
<path d="M151.5 23.0001V0.995117H147.261V23.0001H151.5Z" fill="#262A31"/>
</svg>
