<svg width="33" height="26" viewBox="0 0 33 26" fill="none" xmlns="http://www.w3.org/2000/svg">
<path d="M3.80835 7.15527V14.0361H14.7297V7.15527H3.80835ZM12.9781 12.2845H5.55297V8.89292H12.9851V12.2845H12.9781Z" fill="#933EFF"/>
<path d="M32.7343 19.9398H30.7664V14.9153H27.2771V7.73447C27.2771 3.95213 24.1996 0.881592 20.4243 0.881592H7.61176C3.58517 0.881592 0.312256 4.1545 0.312256 8.18109V15.3829C0.312256 18.5023 2.58724 21.0913 5.56008 21.6007C5.5531 21.6845 5.5531 21.7682 5.5531 21.8589C5.5531 23.9036 7.22096 25.5715 9.26566 25.5715C11.3104 25.5715 12.9782 23.9036 12.9782 21.8589C12.9782 21.8031 12.9782 21.7473 12.9712 21.6914H32.7273V19.9398H32.7343ZM9.26566 23.8129C8.18399 23.8129 7.29772 22.9336 7.29772 21.845C7.29772 20.7633 8.17701 19.877 9.26566 19.877C10.3473 19.877 11.2336 20.7563 11.2336 21.845C11.2336 22.9336 10.3473 23.8129 9.26566 23.8129ZM22.0433 19.9398H18.2191V8.02757C18.2191 6.97381 19.0774 6.11546 20.1312 6.11546C21.1849 6.11546 22.0433 6.97381 22.0433 8.02757V19.9398ZM25.5325 14.9153V19.9398H23.7879V8.02757C23.7879 6.01078 22.148 4.37084 20.1312 4.37084C18.1144 4.37084 16.4744 6.01078 16.4744 8.02757V19.9398H12.4548C11.8058 18.8582 10.6195 18.1394 9.27264 18.1394C7.93975 18.1394 6.76038 18.8512 6.11138 19.9119C3.84337 19.6537 2.07084 17.7207 2.07084 15.3829V8.17411C2.07084 5.11056 4.56216 2.61924 7.62571 2.61924H20.4312C23.2506 2.61924 25.5395 4.90818 25.5395 7.72749V14.9153H25.5325ZM29.0218 19.9398H27.2771V16.66H29.0218C29.0218 17.9408 29.0218 18.659 29.0218 19.9398Z" fill="#933EFF"/>
</svg>
