<svg width="44" height="44" viewBox="0 0 44 44" fill="none" xmlns="http://www.w3.org/2000/svg">
<circle cx="22" cy="22" r="21.15" fill="#D3B0FE" stroke="#933EFF" stroke-width="1.7"/>
<path d="M16.2658 32.8126C15.1841 32.8126 14.2979 31.9333 14.2979 30.8446C14.2979 29.763 15.1771 28.8767 16.2658 28.8767C17.3475 28.8767 18.2337 29.756 18.2337 30.8446C18.2337 31.9333 17.3475 32.8126 16.2658 32.8126Z" fill="#FDFDFD"/>
<path d="M25.2122 28.9396V17.0273C25.2122 15.9736 26.0705 15.1152 27.1243 15.1152C28.178 15.1152 29.0364 15.9736 29.0364 17.0273V28.9396H25.2122Z" fill="#FDFDFD"/>
<path d="M32.5325 28.94H30.7879V17.0277C30.7879 15.0109 29.1479 13.371 27.1311 13.371C25.1143 13.371 23.4744 15.0109 23.4744 17.0277V28.94H19.4548C18.8058 27.8583 17.6195 27.1395 16.2726 27.1395C14.9397 27.1395 13.7603 27.8514 13.1113 28.9121C10.8433 28.6539 9.0708 26.7208 9.0708 24.383V17.1743C9.0708 14.1107 11.5621 11.6194 14.6257 11.6194H27.4312C30.2505 11.6194 32.5395 13.9083 32.5395 16.7276V23.9085V28.94H32.5325Z" fill="#FDFDFD"/>
<path d="M36.0217 25.6602H34.2771V28.94H36.0217V25.6602Z" fill="#FDFDFD"/>
<path d="M19.9853 17.8999H12.5532V21.2914H19.9853V17.8999Z" fill="#FDFDFD"/>
<path d="M10.8083 16.1553V23.0361H21.7297V16.1553H10.8083ZM19.9781 21.2845H12.553V17.8929H19.9851V21.2845H19.9781Z" fill="#933EFF"/>
<path d="M39.7343 28.9398H37.7664V23.9153H34.2771V16.7345C34.2771 12.9521 31.1996 9.88159 27.4243 9.88159H14.6118C10.5852 9.88159 7.31226 13.1545 7.31226 17.1811V24.3829C7.31226 27.5023 9.58724 30.0913 12.5601 30.6007C12.5531 30.6845 12.5531 30.7682 12.5531 30.8589C12.5531 32.9036 14.221 34.5715 16.2657 34.5715C18.3104 34.5715 19.9782 32.9036 19.9782 30.8589C19.9782 30.8031 19.9782 30.7473 19.9712 30.6915H39.7273V28.9398H39.7343ZM16.2657 32.8129C15.184 32.8129 14.2977 31.9336 14.2977 30.845C14.2977 29.7633 15.177 28.877 16.2657 28.877C17.3473 28.877 18.2336 29.7563 18.2336 30.845C18.2336 31.9336 17.3473 32.8129 16.2657 32.8129ZM29.0433 28.9398H25.2191V17.0276C25.2191 15.9738 26.0774 15.1155 27.1312 15.1155C28.1849 15.1155 29.0433 15.9738 29.0433 17.0276V28.9398ZM32.5325 23.9153V28.9398H30.7879V17.0276C30.7879 15.0108 29.148 13.3708 27.1312 13.3708C25.1144 13.3708 23.4744 15.0108 23.4744 17.0276V28.9398H19.4548C18.8058 27.8582 17.6195 27.1394 16.2726 27.1394C14.9397 27.1394 13.7604 27.8512 13.1114 28.9119C10.8434 28.6537 9.07084 26.7207 9.07084 24.3829V17.1741C9.07084 14.1106 11.5622 11.6192 14.6257 11.6192H27.4312C30.2506 11.6192 32.5395 13.9082 32.5395 16.7275V23.9153H32.5325ZM36.0218 28.9398H34.2771V25.66H36.0218C36.0218 26.9408 36.0218 27.659 36.0218 28.9398Z" fill="#933EFF"/>
</svg>
