<svg width="87" height="38" viewBox="0 0 87 38" fill="none" xmlns="http://www.w3.org/2000/svg">
<path d="M10.88 28.216C7.16 28.216 4.424 27.268 2.672 25.372C0.944 23.476 0.08 20.98 0.08 17.884C0.08 14.764 0.608 11.932 1.664 9.388C2.744 6.82 4.34 4.72 6.452 3.088C8.564 1.432 10.844 0.603999 13.292 0.603999C15.764 0.603999 17.696 1.204 19.088 2.404C20.504 3.58 21.212 5.176 21.212 7.192C21.212 9.184 20.588 10.84 19.34 12.16C18.116 13.48 16.676 14.14 15.02 14.14C13.364 14.14 12.08 13.78 11.168 13.06C10.256 12.316 9.8 11.536 9.8 10.72C9.8 9.88 10.124 9.232 10.772 8.776C11.444 8.296 12.416 8.056 13.688 8.056C13.376 8.368 13.22 8.788 13.22 9.316C13.22 9.82 13.376 10.264 13.688 10.648C14 11.032 14.48 11.224 15.128 11.224C15.776 11.224 16.424 10.888 17.072 10.216C17.72 9.52 18.044 8.608 18.044 7.48C18.044 6.352 17.696 5.452 17 4.78C16.328 4.108 15.368 3.772 14.12 3.772C12.488 3.772 11 4.432 9.656 5.752C8.336 7.072 7.328 8.752 6.632 10.792C5.936 12.832 5.588 14.98 5.588 17.236C5.588 19.18 6.008 20.896 6.848 22.384C7.28 23.152 7.916 23.764 8.756 24.22C9.62 24.676 10.628 24.904 11.78 24.904C13.748 24.904 15.644 24.28 17.468 23.032C19.292 21.76 20.828 20.128 22.076 18.136L23.3 20.332C21.884 22.636 20.108 24.532 17.972 26.02C15.836 27.484 13.472 28.216 10.88 28.216ZM36.915 28.18C34.707 28.18 33.243 27.412 32.523 25.876C31.275 27.436 29.667 28.216 27.699 28.216C25.755 28.216 24.111 27.556 22.767 26.236C21.447 24.916 20.787 23.176 20.787 21.016C20.787 17.872 21.711 15.364 23.559 13.492C25.407 11.62 27.747 10.684 30.579 10.684C30.651 10.684 30.723 10.684 30.795 10.684C31.995 10.684 33.099 10.888 34.107 11.296C34.755 10.888 35.535 10.684 36.447 10.684C37.383 10.684 38.055 10.804 38.463 11.044C38.247 12.82 38.019 14.572 37.779 16.3C37.539 18.004 37.371 19.216 37.275 19.936C37.059 21.568 36.951 22.744 36.951 23.464C36.951 24.424 37.335 24.904 38.103 24.904C38.703 24.904 39.339 24.508 40.011 23.716C40.683 22.9 41.271 21.628 41.775 19.9C42.471 20.524 42.951 21.22 43.215 21.988C42.519 24.268 41.583 25.876 40.407 26.812C39.231 27.724 38.067 28.18 36.915 28.18ZM31.119 13.492C29.583 13.492 28.359 14.08 27.447 15.256C26.559 16.408 26.031 18.136 25.863 20.44C25.839 20.656 25.827 20.86 25.827 21.052C25.827 22.228 26.103 23.164 26.655 23.86C27.231 24.556 27.963 24.904 28.851 24.904C30.363 24.904 31.503 23.836 32.271 21.7L33.135 13.924C32.439 13.636 31.767 13.492 31.119 13.492ZM50.7697 28L52.1377 16.048C52.1377 15.376 51.9697 14.824 51.6337 14.392C51.3217 13.936 50.7577 13.708 49.9417 13.708C49.1257 13.708 48.4537 14.104 47.9257 14.896C47.3977 15.664 47.0617 16.48 46.9177 17.344C46.0777 23.32 45.6097 26.872 45.5137 28H40.6897L42.6697 11.08C43.6777 10.816 44.4457 10.684 44.9737 10.684C46.4857 10.684 47.3137 11.188 47.4577 12.196C48.6337 11.188 49.9177 10.684 51.3097 10.684C54.0937 10.684 55.8697 11.512 56.6377 13.168C57.8137 11.488 59.4937 10.648 61.6777 10.648C63.2857 10.648 64.5577 11.068 65.4937 11.908C66.4297 12.724 66.8977 13.756 66.8977 15.004C66.8977 15.364 66.8257 16 66.6817 16.912C66.1297 20.512 65.8537 22.624 65.8537 23.248C65.8537 24.376 66.2257 24.94 66.9697 24.94C67.5937 24.94 68.2537 24.532 68.9497 23.716C69.6697 22.876 70.2457 21.592 70.6777 19.864C71.4937 20.728 71.9857 21.412 72.1537 21.916C70.9057 26.092 68.6977 28.18 65.5297 28.18C64.0417 28.18 62.9377 27.724 62.2177 26.812C61.4977 25.9 61.1377 24.94 61.1377 23.932L62.0017 15.976C62.0017 15.328 61.8337 14.788 61.4977 14.356C61.1617 13.924 60.6217 13.708 59.8777 13.708C59.1577 13.708 58.5217 13.984 57.9697 14.536C57.4177 15.088 57.0337 15.796 56.8177 16.66C56.0977 22.756 55.6297 26.536 55.4137 28H50.7697ZM73.5113 10.648C75.0713 10.648 75.9833 11.044 76.2473 11.836C77.3753 11.044 78.8033 10.648 80.5313 10.648C82.2593 10.648 83.7473 11.356 84.9953 12.772C86.2433 14.188 86.8673 15.844 86.8673 17.74C86.8673 18.004 86.8553 18.28 86.8313 18.568C86.5673 21.712 85.5113 24.112 83.6633 25.768C81.8153 27.4 79.4033 28.216 76.4273 28.216C75.7553 28.216 75.0233 28.132 74.2313 27.964L73.0793 37.864H68.3633C69.8993 24.64 70.9313 15.664 71.4593 10.936C71.9633 10.744 72.6473 10.648 73.5113 10.648ZM81.7913 17.992C81.7913 16.936 81.5513 16 81.0713 15.184C80.5913 14.368 79.8473 13.96 78.8393 13.96C77.4713 13.96 76.4273 14.848 75.7073 16.624C75.2273 20.176 74.9513 22.24 74.8793 22.816C74.8553 23.536 75.0833 24.076 75.5633 24.436C76.0433 24.796 76.6313 24.976 77.3273 24.976C78.5513 24.976 79.5593 24.424 80.3513 23.32C81.3113 21.952 81.7913 20.176 81.7913 17.992Z" fill="#282828"/>
</svg>
