<?xml version="1.0" standalone="no"?>
<!DOCTYPE svg PUBLIC "-//W3C//DTD SVG 20010904//EN"
 "http://www.w3.org/TR/2001/REC-SVG-20010904/DTD/svg10.dtd">
<svg version="1.0" xmlns="http://www.w3.org/2000/svg"
 width="310.000000pt" height="310.000000pt" viewBox="0 0 310.000000 310.000000"
 preserveAspectRatio="xMidYMid meet">

<g transform="translate(0.000000,310.000000) scale(0.100000,-0.100000)"
fill="#000000" stroke="none">
<path d="M0 2825 l0 -275 1263 -2 1262 -3 52 -24 c65 -29 124 -91 149 -157 17
-43 19 -77 19 -284 0 -207 -2 -241 -19 -284 -25 -66 -84 -128 -149 -157 -52
-24 -55 -24 -464 -27 l-413 -3 0 -805 0 -804 700 0 700 0 0 1550 0 1550 -1550
0 -1550 0 0 -275z"/>
<path d="M0 1130 l0 -1130 695 0 695 0 0 934 c0 514 3 941 6 950 5 14 60 16
513 16 381 0 510 3 519 12 17 17 17 319 0 336 -9 9 -294 12 -1220 12 l-1208 0
0 -1130z"/>
</g>
</svg>
