<svg width="20" height="20" viewBox="0 0 20 20" fill="none" xmlns="http://www.w3.org/2000/svg">
<g clip-path="url(#clip0_212_1260)">
<path d="M9.4565 19.1668C8.84615 19.1664 8.26092 18.918 7.82925 18.4763C7.39759 18.0345 7.15476 17.4355 7.15408 16.8107C7.1513 16.6448 7.10631 16.4826 7.02357 16.34C6.89215 16.1031 6.67475 15.9289 6.41858 15.8551C6.33431 15.8321 6.24739 15.8208 6.16016 15.8215C5.98396 15.8216 5.81084 15.8689 5.65802 15.9587C5.30808 16.1582 4.91428 16.2632 4.51372 16.2639C4.3036 16.2637 4.0945 16.2339 3.8923 16.1754C3.3047 16.0021 2.80772 15.5983 2.50947 15.0518L1.97362 14.0989C1.67062 13.5594 1.58872 12.9191 1.74584 12.318C1.90296 11.7169 2.2863 11.204 2.81196 10.8916C2.96467 10.8011 3.09146 10.6711 3.1796 10.5147C3.26774 10.3582 3.31414 10.1808 3.31414 10.0002C3.31414 9.81955 3.26774 9.64212 3.1796 9.48566C3.09146 9.3292 2.96467 9.19922 2.81196 9.10876C2.28603 8.79479 1.90267 8.2807 1.74547 7.67857C1.58826 7.07644 1.66996 6.43511 1.97275 5.89439L2.55873 4.90964C2.86481 4.37319 3.3656 3.98232 3.95197 3.82223C4.53833 3.66213 5.16275 3.74578 5.68913 4.05495C5.8336 4.1438 5.99855 4.19174 6.16707 4.19386C6.42941 4.19112 6.68033 4.08358 6.86632 3.89417C7.05232 3.70476 7.15868 3.44845 7.16272 3.17991C7.16272 2.87163 7.22206 2.56637 7.33736 2.28157C7.45265 1.99678 7.62164 1.73803 7.83466 1.52012C8.04768 1.30222 8.30056 1.12942 8.57884 1.0116C8.85712 0.893788 9.15536 0.833268 9.4565 0.833501H10.5394C10.8474 0.832884 11.1524 0.89565 11.4362 1.01807C11.72 1.14049 11.9769 1.32006 12.1916 1.54612C12.4063 1.77219 12.5745 2.04012 12.686 2.33401C12.7976 2.62789 12.8503 2.94174 12.841 3.25689C12.8463 3.41621 12.8912 3.57151 12.9715 3.70812C13.0377 3.82477 13.1258 3.92687 13.2306 4.00856C13.3355 4.09025 13.4551 4.14991 13.5825 4.18413C13.6651 4.20498 13.7499 4.21567 13.8349 4.21598C14.0125 4.21646 14.1868 4.16785 14.3397 4.0753C14.8692 3.76453 15.4974 3.68101 16.0869 3.84299C16.6764 4.00497 17.1793 4.39928 17.4856 4.93972L18.0241 5.89439C18.0376 5.91872 18.0497 5.94383 18.0604 5.96959C18.3357 6.50722 18.3986 7.13262 18.2362 7.71643C18.0737 8.30023 17.6982 8.79777 17.1874 9.10611C17.035 9.1945 16.9084 9.32313 16.821 9.4786C16.6877 9.71501 16.6502 9.99545 16.7164 10.2598C16.7501 10.3896 16.8088 10.5112 16.8889 10.6176C16.969 10.7239 17.069 10.8128 17.1831 10.8792C17.4452 11.0335 17.6749 11.2393 17.859 11.4848C18.0431 11.7303 18.178 12.0106 18.256 12.3097C18.3339 12.6087 18.3533 12.9206 18.313 13.2274C18.2728 13.5341 18.1737 13.8297 18.0215 14.0971L17.4484 15.0783C17.1409 15.6144 16.6388 16.0043 16.0517 16.1632C15.4646 16.3222 14.8399 16.2372 14.3137 15.9268C14.1666 15.8406 14.0009 15.7932 13.8315 15.7888H13.8271C13.5676 15.7936 13.32 15.9007 13.1357 16.0878C13.042 16.1828 12.9679 16.296 12.9177 16.4207C12.8676 16.5455 12.8423 16.6793 12.8436 16.8142C12.84 17.4376 12.596 18.0343 12.1648 18.4746C11.7337 18.9148 11.1501 19.163 10.5412 19.1651L9.4565 19.1668ZM6.75132 14.5731C7.34006 14.7363 7.84201 15.131 8.14799 15.6711C8.34589 16.0147 8.452 16.4056 8.45567 16.8045C8.45521 17.0784 8.56086 17.3412 8.74945 17.5354C8.93804 17.7297 9.19418 17.8394 9.46169 17.8406H10.5446C10.8103 17.8403 11.0652 17.7326 11.2536 17.5409C11.442 17.3491 11.5488 17.0889 11.5506 16.8169C11.5498 16.2017 11.7847 15.6107 12.2049 15.1708C12.625 14.7309 13.1969 14.4773 13.7978 14.4643H13.8522C14.2411 14.474 14.6216 14.5815 14.9602 14.7775C15.1911 14.9128 15.4648 14.9495 15.7219 14.8798C15.9791 14.8101 16.1991 14.6395 16.3344 14.405L16.9083 13.4256C17.0383 13.1909 17.0724 12.9131 17.0033 12.6528C16.9342 12.3924 16.7674 12.1706 16.5392 12.0356C16.2767 11.8815 16.0466 11.6757 15.8624 11.4299C15.6781 11.1842 15.5433 10.9035 15.4658 10.604C15.3103 9.99999 15.3945 9.35752 15.7 8.81679C15.9011 8.46057 16.1906 8.16511 16.5392 7.96033C16.7665 7.82263 16.9318 7.59895 16.9994 7.33756C17.067 7.07618 17.0315 6.79807 16.9005 6.56328C16.8889 6.54407 16.8788 6.52395 16.8702 6.50311L16.3586 5.60242C16.2253 5.36651 16.0062 5.19419 15.7493 5.12307C15.4923 5.05196 15.2182 5.08783 14.987 5.22285C14.639 5.43386 14.242 5.54538 13.8375 5.54579C13.436 5.54517 13.0416 5.43756 12.6931 5.23356C12.3445 5.02956 12.0539 4.7362 11.8497 4.38232C11.6498 4.03782 11.5427 3.64519 11.5394 3.2445C11.5449 3.10269 11.5226 2.9612 11.4737 2.82838C11.4249 2.69556 11.3505 2.57411 11.2551 2.47121C11.1611 2.37278 11.0488 2.2946 10.9249 2.24127C10.8009 2.18793 10.6678 2.16052 10.5334 2.16066H9.4565C9.3251 2.16036 9.19493 2.18662 9.07346 2.23794C8.95199 2.28926 8.84161 2.36462 8.74866 2.45971C8.65563 2.55481 8.5821 2.66797 8.53238 2.79256C8.48266 2.91714 8.45776 3.05065 8.45913 3.18522C8.4499 3.80499 8.20424 4.39648 7.77465 4.83328C7.34506 5.27008 6.76562 5.51754 6.16016 5.52279C5.7645 5.51923 5.37683 5.40841 5.0366 5.20161C4.88856 5.11551 4.72115 5.07038 4.55088 5.07067C4.3735 5.07062 4.19923 5.11833 4.04555 5.20903C3.89188 5.29972 3.76421 5.4302 3.67537 5.58737L3.08767 6.57124C2.95854 6.80642 2.92532 7.08428 2.99523 7.34441C3.06515 7.60453 3.23255 7.82588 3.46103 7.96033C3.81082 8.16715 4.10128 8.46457 4.30322 8.82271C4.50516 9.18085 4.61148 9.58709 4.61148 10.0006C4.61148 10.4141 4.50516 10.8204 4.30322 11.1785C4.10128 11.5366 3.81082 11.8341 3.46103 12.0409C3.23266 12.1767 3.06614 12.3995 2.99794 12.6607C2.92975 12.9219 2.96543 13.2001 3.09717 13.4344L3.64253 14.397C3.70641 14.5168 3.79279 14.6225 3.89669 14.7081C4.0006 14.7936 4.11999 14.8573 4.24801 14.8954C4.37603 14.9336 4.51014 14.9454 4.64266 14.9304C4.77517 14.9153 4.90347 14.8736 5.02018 14.8076C5.36633 14.6016 5.75976 14.4935 6.16016 14.4944C6.35972 14.4942 6.55844 14.5207 6.75132 14.5731ZM7.07543 10.0006C7.07526 9.40805 7.24674 8.82875 7.5682 8.33597C7.88966 7.84319 8.34664 7.45907 8.88136 7.23219C9.41608 7.00531 10.0045 6.94585 10.5722 7.06135C11.14 7.17684 11.6615 7.4621 12.0709 7.88104C12.4802 8.29998 12.759 8.83378 12.872 9.41494C12.985 9.9961 12.9271 10.5985 12.7056 11.146C12.4841 11.6934 12.1091 12.1614 11.6278 12.4906C11.1465 12.8198 10.5807 12.9956 10.0019 12.9956C9.2263 12.9944 8.48284 12.6785 7.93443 12.1171C7.38603 11.5557 7.07743 10.7946 7.07629 10.0006H7.07543ZM8.37184 10.0006C8.37201 10.3306 8.46775 10.6531 8.64697 10.9274C8.82618 11.2017 9.08081 11.4155 9.37868 11.5416C9.67654 11.6678 10.0043 11.7007 10.3204 11.6362C10.6365 11.5717 10.9269 11.4128 11.1548 11.1793C11.3826 10.9459 11.5378 10.6486 11.6006 10.3249C11.6634 10.0013 11.6311 9.66581 11.5077 9.36095C11.3843 9.05609 11.1754 8.79553 10.9074 8.61221C10.6393 8.42889 10.3242 8.33105 10.0019 8.33105C9.56962 8.33152 9.15524 8.50762 8.84977 8.82068C8.54429 9.13373 8.3727 9.55812 8.3727 10.0006H8.37184Z" fill="#7D7D7D"/>
</g>
<defs>
<clipPath id="clip0_212_1260">
<rect width="16.6667" height="18.3333" fill="white" transform="translate(1.66675 0.833496)"/>
</clipPath>
</defs>
</svg>
