<svg width="20" height="20" viewBox="0 0 20 20" fill="none" xmlns="http://www.w3.org/2000/svg">
<path fill-rule="evenodd" clip-rule="evenodd" d="M9.45626 19.1663C8.84591 19.1659 8.26067 18.9175 7.82901 18.4758C7.39734 18.034 7.15452 17.435 7.15383 16.8102C7.15105 16.6444 7.10607 16.4821 7.02333 16.3395C6.8919 16.1026 6.6745 15.9284 6.41833 15.8547C6.33407 15.8316 6.24714 15.8203 6.15992 15.821C5.98371 15.8211 5.81059 15.8684 5.65777 15.9582C5.30783 16.1577 4.91403 16.2628 4.51347 16.2634C4.30335 16.2632 4.09426 16.2335 3.89206 16.1749C3.30446 16.0016 2.80747 15.5978 2.50922 15.0513L1.97337 14.0984C1.67038 13.559 1.58848 12.9186 1.7456 12.3175C1.90272 11.7164 2.28606 11.2035 2.81172 10.8911C2.96443 10.8006 3.09121 10.6707 3.17936 10.5142C3.2675 10.3577 3.3139 10.1803 3.3139 9.99968C3.3139 9.81907 3.2675 9.64163 3.17936 9.48517C3.09121 9.32871 2.96443 9.19873 2.81172 9.10827C2.28578 8.7943 1.90243 8.28021 1.74522 7.67808C1.58802 7.07595 1.66972 6.43462 1.97251 5.8939L2.55849 4.90915C2.86456 4.3727 3.36535 3.98184 3.95172 3.82174C4.53809 3.66164 5.1625 3.7453 5.68889 4.05446C5.83336 4.14332 5.9983 4.19126 6.16683 4.19337C6.42917 4.19063 6.68008 4.0831 6.86608 3.89368C7.05207 3.70427 7.15843 3.44797 7.16247 3.17942C7.16247 2.87114 7.22182 2.56588 7.33711 2.28108C7.45241 1.99629 7.62139 1.73754 7.83441 1.51963C8.04743 1.30173 8.30031 1.12893 8.5786 1.01111C8.85688 0.8933 9.15512 0.83278 9.45626 0.833012H10.5392C10.8472 0.832395 11.1522 0.895161 11.436 1.01758C11.7198 1.14 11.9767 1.31958 12.1914 1.54564C12.4061 1.7717 12.5742 2.03963 12.6858 2.33352C12.7973 2.62741 12.85 2.94125 12.8408 3.2564C12.8461 3.41572 12.891 3.57102 12.9713 3.70763C13.0375 3.82428 13.1255 3.92638 13.2304 4.00807C13.3352 4.08976 13.4548 4.14943 13.5823 4.18364C13.6649 4.20449 13.7496 4.21518 13.8347 4.21549C14.0122 4.21597 14.1866 4.16737 14.3394 4.07481C14.8689 3.76404 15.4971 3.68052 16.0866 3.8425C16.6761 4.00448 17.179 4.39879 17.4854 4.93923L18.0238 5.8939C18.0373 5.91823 18.0494 5.94334 18.0601 5.96911C18.3354 6.50673 18.3984 7.13214 18.2359 7.71594C18.0734 8.29974 17.698 8.79728 17.1872 9.10562C17.0347 9.19401 16.9082 9.32264 16.8207 9.47811C16.6875 9.71452 16.6499 9.99496 16.7162 10.2594C16.7499 10.3891 16.8085 10.5108 16.8887 10.6171C16.9688 10.7234 17.0688 10.8124 17.1829 10.8787C17.445 11.033 17.6747 11.2388 17.8588 11.4843C18.0429 11.7298 18.1778 12.0101 18.2557 12.3092C18.3336 12.6082 18.353 12.9201 18.3128 13.2269C18.2725 13.5336 18.1734 13.8292 18.0212 14.0966L17.4482 15.0778C17.1406 15.6139 16.6386 16.0038 16.0515 16.1628C15.4644 16.3217 14.8397 16.2367 14.3135 15.9263C14.1664 15.8401 14.0007 15.7927 13.8312 15.7883H13.8269C13.5674 15.7931 13.3197 15.9002 13.1355 16.0873C13.0418 16.1823 12.9677 16.2955 12.9175 16.4202C12.8673 16.545 12.8421 16.6788 12.8433 16.8137C12.8397 17.4371 12.5958 18.0339 12.1646 18.4741C11.7334 18.9143 11.1499 19.1625 10.5409 19.1646L9.45626 19.1663ZM7.0752 10.0001C7.07502 9.40758 7.24651 8.82828 7.56797 8.3355C7.88942 7.84272 8.34641 7.4586 8.88113 7.23172C9.41585 7.00483 10.0043 6.94538 10.572 7.06088C11.1397 7.17637 11.6613 7.46163 12.0706 7.88057C12.48 8.29951 12.7588 8.83331 12.8718 9.41447C12.9848 9.99563 12.9269 10.598 12.7054 11.1455C12.4839 11.693 12.1088 12.1609 11.6276 12.4901C11.1463 12.8194 10.5805 12.9951 10.0016 12.9951C9.22607 12.9939 8.4826 12.678 7.9342 12.1166C7.3858 11.5552 7.07634 10.7941 7.0752 10.0001Z" fill="#7D7D7D"/>
</svg>
