<svg width="12" height="12" viewBox="0 0 12 12" fill="none" xmlns="http://www.w3.org/2000/svg">
<path d="M3.48854 12C2.56332 12 1.676 11.6044 1.02177 10.9001C0.367542 10.1959 0 9.24068 0 8.24472L0 3.75528C0 2.75932 0.367542 1.80415 1.02177 1.0999C1.676 0.395644 2.56332 0 3.48854 0L8.51495 0C9.44017 0 10.3275 0.395644 10.9817 1.0999C11.6359 1.80415 12.0035 2.75932 12.0035 3.75528V8.24785C12.0035 9.24381 11.6359 10.199 10.9817 10.9032C10.3275 11.6075 9.44017 12.0031 8.51495 12.0031L3.48854 12ZM0.872135 3.75528V8.24785C0.872135 8.99482 1.14779 9.7112 1.63846 10.2394C2.12913 10.7676 2.79463 11.0643 3.48854 11.0643H8.51495C9.20886 11.0643 9.87435 10.7676 10.365 10.2394C10.8557 9.7112 11.1314 8.99482 11.1314 8.24785V8.07385H9.21266C8.94709 8.07873 8.68328 8.02663 8.43662 7.9206C8.18995 7.81458 7.96537 7.65674 7.77597 7.4563C7.58656 7.25586 7.43613 7.01683 7.33344 6.75315C7.23076 6.48947 7.17787 6.20642 7.17787 5.92051C7.17787 5.6346 7.23076 5.35155 7.33344 5.08787C7.43613 4.82419 7.58656 4.58516 7.77597 4.38472C7.96537 4.18429 8.18995 4.02645 8.43662 3.92042C8.68328 3.81439 8.94709 3.7623 9.21266 3.76717H11.1314V3.75528C11.1314 3.00831 10.8557 2.29193 10.365 1.76374C9.87435 1.23555 9.20886 0.93882 8.51495 0.93882H3.48854C2.79463 0.93882 2.12913 1.23555 1.63846 1.76374C1.14779 2.29193 0.872135 3.00831 0.872135 3.75528ZM8.08179 5.9177C8.08256 6.23969 8.2018 6.54823 8.41342 6.7758C8.62504 7.00336 8.91179 7.13141 9.21091 7.1319H11.1296V4.70224H9.21091C8.91164 4.7029 8.6248 4.83117 8.41318 5.05897C8.20156 5.28677 8.0824 5.59554 8.08179 5.9177ZM9.2958 6.3483C9.18015 6.3483 9.06923 6.29885 8.98745 6.21081C8.90567 6.12278 8.85973 6.00339 8.85973 5.87889C8.85973 5.7544 8.90567 5.635 8.98745 5.54697C9.06923 5.45894 9.18015 5.40948 9.2958 5.40948H9.4772C9.59286 5.40948 9.70377 5.45894 9.78555 5.54697C9.86733 5.635 9.91327 5.7544 9.91327 5.87889C9.91327 6.00339 9.86733 6.12278 9.78555 6.21081C9.70377 6.29885 9.59286 6.3483 9.4772 6.3483H9.2958ZM3.0734 3.77906C2.95775 3.77906 2.84684 3.72961 2.76506 3.64158C2.68328 3.55355 2.63734 3.43415 2.63734 3.30965C2.63734 3.18516 2.68328 3.06576 2.76506 2.97773C2.84684 2.8897 2.95775 2.84024 3.0734 2.84024H6.21309C6.32874 2.84024 6.43966 2.8897 6.52144 2.97773C6.60322 3.06576 6.64916 3.18516 6.64916 3.30965C6.64916 3.43415 6.60322 3.55355 6.52144 3.64158C6.43966 3.72961 6.32874 3.77906 6.21309 3.77906H3.0734Z" fill="#B3B3B3"/>
</svg>
