<svg width="28" height="28" viewBox="0 0 28 28" fill="none" xmlns="http://www.w3.org/2000/svg">
<circle cx="14" cy="14" r="13.45" fill="#0E7DFF" stroke="#282828" stroke-width="1.1"/>
<path d="M10.351 20.8809C9.66262 20.8809 9.09863 20.3213 9.09863 19.6285C9.09863 18.9402 9.65818 18.3762 10.351 18.3762C11.0393 18.3762 11.6033 18.9358 11.6033 19.6285C11.6033 20.3213 11.0393 20.8809 10.351 20.8809Z" fill="#B3B3B3"/>
<path d="M16.0442 18.4162V10.8357C16.0442 10.1651 16.5904 9.6189 17.261 9.6189C17.9316 9.6189 18.4778 10.1651 18.4778 10.8357V18.4162H16.0442V18.4162Z" fill="#FFC700"/>
<path d="M20.7026 18.4163H19.5924V10.8357C19.5924 9.5523 18.5488 8.5087 17.2654 8.5087C15.982 8.5087 14.9384 9.5523 14.9384 10.8357V18.4163H12.3805C11.9675 17.7279 11.2125 17.2705 10.3554 17.2705C9.50722 17.2705 8.75672 17.7235 8.34372 18.3985C6.90044 18.2342 5.77246 17.0041 5.77246 15.5164V10.929C5.77246 8.97943 7.35785 7.39404 9.30738 7.39404H17.4564C19.2505 7.39404 20.7071 8.85064 20.7071 10.6448V15.2144V18.4163H20.7026Z" fill="#F96161"/>
<path d="M22.923 16.3291H21.8127V18.4163H22.923V16.3291Z" fill="#FDFDFD"/>
<path d="M12.718 11.3909H7.98853V13.5491H12.718V11.3909Z" fill="#FDFDFD"/>
<path d="M6.87817 10.2805V14.6592H13.8281V10.2805H6.87817ZM12.7135 13.5445H7.98839V11.3863H12.7179V13.5445H12.7135Z" fill="#282828"/>
<path d="M25.2855 18.4163H24.0332V15.2189H21.8128V10.6493C21.8128 8.24231 19.8544 6.28833 17.4519 6.28833H9.29846C6.73608 6.28833 4.65332 8.37109 4.65332 10.9335V15.5164C4.65332 17.5015 6.10104 19.1491 7.99285 19.4732C7.9884 19.5265 7.9884 19.5798 7.9884 19.6375C7.9884 20.9387 9.04977 22.0001 10.3509 22.0001C11.6521 22.0001 12.7135 20.9387 12.7135 19.6375C12.7135 19.602 12.7135 19.5665 12.709 19.531H25.2811V18.4163H25.2855ZM10.3509 20.881C9.66261 20.881 9.09862 20.3214 9.09862 19.6287C9.09862 18.9403 9.65817 18.3763 10.3509 18.3763C11.0393 18.3763 11.6033 18.9359 11.6033 19.6287C11.6033 20.3214 11.0393 20.881 10.3509 20.881ZM18.4821 18.4163H16.0486V10.8358C16.0486 10.1652 16.5948 9.61897 17.2654 9.61897C17.9359 9.61897 18.4821 10.1652 18.4821 10.8358V18.4163ZM20.7026 15.2189V18.4163H19.5924V10.8358C19.5924 9.55236 18.5488 8.50876 17.2654 8.50876C15.9819 8.50876 14.9383 9.55236 14.9383 10.8358V18.4163H12.3804C11.9674 17.728 11.2125 17.2706 10.3554 17.2706C9.50718 17.2706 8.75667 17.7235 8.34367 18.3985C6.90039 18.2342 5.77242 17.0041 5.77242 15.5164V10.929C5.77242 8.97949 7.3578 7.3941 9.30734 7.3941H17.4563C19.2504 7.3941 20.707 8.8507 20.707 10.6448V15.2189H20.7026ZM22.923 18.4163H21.8128V16.3291H22.923C22.923 17.1442 22.923 17.6012 22.923 18.4163Z" fill="#282828"/>
</svg>
