<svg width="28" height="28" viewBox="0 0 28 28" fill="none" xmlns="http://www.w3.org/2000/svg">
<circle cx="14" cy="14" r="13.5" fill="#FFDE30" stroke="#FFD600"/>
<path d="M11.1377 14.1649C11.1022 14.1044 11.1022 14.0293 11.1377 13.968L14.1873 8.74337C14.2631 8.61348 14.1695 8.44971 14.0187 8.44971H11.5548C11.4854 8.44971 11.4217 8.48682 11.3862 8.54652L8.95859 12.7062C8.91664 12.7772 8.80772 12.7482 8.80772 12.6651V8.64495C8.80772 8.53764 8.72059 8.44971 8.61249 8.44971H6.28899C6.18088 8.44971 6.09375 8.53684 6.09375 8.64495V19.4879C6.09375 19.5952 6.18088 19.6832 6.28899 19.6832H8.61329C8.72059 19.6832 8.80853 19.596 8.80853 19.4879V15.4678C8.80853 15.3855 8.91744 15.3557 8.9594 15.4267L11.387 19.5864C11.4217 19.6461 11.4862 19.6832 11.5556 19.6832H14.0195C14.1703 19.6832 14.2639 19.5202 14.1881 19.3895L11.1377 14.1649Z" fill="#262A31"/>
<path d="M16.6319 8.44971H14.168C14.0986 8.44971 14.0349 8.48682 13.9994 8.54652L10.8352 13.968C10.7997 14.0285 10.7997 14.1035 10.8352 14.1649L14.0002 19.5864C14.0349 19.6461 14.0994 19.6832 14.1688 19.6832H16.6327C16.7835 19.6832 16.8771 19.5202 16.8013 19.3895L13.7517 14.1641C13.7162 14.1035 13.7162 14.0285 13.7517 13.9672L16.7997 8.74337C16.8755 8.61267 16.7819 8.44971 16.6319 8.44971Z" fill="#3D464F"/>
<path d="M19.242 8.44971H16.7782C16.7088 8.44971 16.645 8.48682 16.6096 8.54652L13.4446 13.968C13.4091 14.0285 13.4091 14.1035 13.4446 14.1649L16.6096 19.5864C16.6442 19.6461 16.7088 19.6832 16.7782 19.6832H19.242C19.3929 19.6832 19.4865 19.5202 19.4107 19.3895L16.3611 14.1641C16.3256 14.1035 16.3256 14.0285 16.3611 13.9672L19.4107 8.74337C19.4865 8.61267 19.3921 8.44971 19.242 8.44971Z" fill="#535E6D"/>
<path d="M21.8534 8.44971H19.3895C19.3201 8.44971 19.2564 8.48682 19.2209 8.54652L16.0559 13.968C16.0204 14.0285 16.0204 14.1035 16.0559 14.1649L19.2209 19.5864C19.2556 19.6461 19.3201 19.6832 19.3895 19.6832H21.8534C22.0042 19.6832 22.0978 19.5202 22.022 19.3895L18.9724 14.1641C18.9369 14.1035 18.9369 14.0285 18.9724 13.9672L22.022 8.74337C22.0978 8.61267 22.0042 8.44971 21.8534 8.44971Z" fill="#6D7889"/>
</svg>
