<svg width="150" height="150" viewBox="0 0 150 150" fill="none" xmlns="http://www.w3.org/2000/svg">
<circle cx="75" cy="75" r="75" fill="#262A31"/>
<path d="M59.1639 73.4741C58.9737 73.1499 58.9737 72.748 59.1639 72.4195L75.501 44.4303C75.9072 43.7345 75.4059 42.8571 74.5977 42.8571H61.3983C61.0267 42.8571 60.6852 43.056 60.4951 43.3758L47.4902 65.6599C47.2655 66.0403 46.682 65.8847 46.682 65.4395V43.9031C46.682 43.3282 46.2152 42.8571 45.6361 42.8571H33.1888C32.6096 42.8571 32.1429 43.3239 32.1429 43.9031V101.99C32.1429 102.565 32.6096 103.036 33.1888 103.036H45.6404C46.2152 103.036 46.6863 102.57 46.6863 101.99V80.4541C46.6863 80.0132 47.2698 79.8533 47.4945 80.2336L60.4994 102.518C60.6852 102.838 61.031 103.036 61.4027 103.036H74.602C75.4102 103.036 75.9116 102.163 75.5053 101.463L59.1639 73.4741Z" fill="#FFDE30"/>
<path d="M88.5923 42.8575H75.3929C75.0212 42.8575 74.6798 43.0564 74.4896 43.3762L57.5388 72.4199C57.3487 72.744 57.3487 73.146 57.5388 73.4745L74.494 102.518C74.6798 102.838 75.0256 103.037 75.3973 103.037H88.5966C89.4048 103.037 89.9062 102.164 89.4999 101.464L73.1628 73.4701C72.9726 73.146 72.9726 72.744 73.1628 72.4156L89.4912 44.4307C89.8975 43.7306 89.3962 42.8575 88.5923 42.8575Z" fill="#FFCE00"/>
<path d="M102.583 42.8575H89.3834C89.0117 42.8575 88.6703 43.0564 88.4801 43.3762L71.525 72.4199C71.3348 72.744 71.3348 73.146 71.525 73.4745L88.4801 102.518C88.666 102.838 89.0117 103.037 89.3834 103.037H102.583C103.391 103.037 103.892 102.164 103.486 101.464L87.1489 73.4701C86.9588 73.146 86.9588 72.744 87.1489 72.4156L103.486 44.4307C103.892 43.7306 103.387 42.8575 102.583 42.8575Z" fill="#FFBC00"/>
<path d="M116.572 42.8575H103.373C103.001 42.8575 102.66 43.0564 102.469 43.3762L85.5142 72.4199C85.3241 72.744 85.3241 73.146 85.5142 73.4745L102.469 102.518C102.655 102.838 103.001 103.037 103.373 103.037H116.572C117.38 103.037 117.882 102.164 117.475 101.464L101.138 73.4701C100.948 73.146 100.948 72.744 101.138 72.4156L117.475 44.4307C117.882 43.7306 117.38 42.8575 116.572 42.8575Z" fill="#FFA300"/>
</svg>