<svg width="20" height="20" viewBox="0 0 20 20" fill="none" xmlns="http://www.w3.org/2000/svg">
<path d="M19.2142 10C19.2142 15.0889 15.0888 19.2143 9.99993 19.2143C4.91102 19.2143 0.785645 15.0889 0.785645 10C0.785645 4.91109 4.91102 0.785713 9.99993 0.785713C15.0888 0.785713 19.2142 4.91109 19.2142 10Z" fill="#DCF7D0" stroke="black"/>
<mask id="path-2-inside-1_206_1464" fill="white">
<path d="M9.99983 9.42857C11.5541 9.42857 12.8141 10.5257 12.8141 11.8786C12.8141 13.2314 11.5541 14.3286 9.99983 14.3286C8.44555 14.3286 7.18555 13.2314 7.18555 11.8786"/>
</mask>
<path d="M9.99983 10.4286C11.1364 10.4286 11.8141 11.2036 11.8141 11.8786H13.8141C13.8141 9.84782 11.9718 8.42857 9.99983 8.42857V10.4286ZM11.8141 11.8786C11.8141 12.5535 11.1364 13.3286 9.99983 13.3286V15.3286C11.9718 15.3286 13.8141 13.9093 13.8141 11.8786H11.8141ZM9.99983 13.3286C8.86323 13.3286 8.18555 12.5535 8.18555 11.8786H6.18555C6.18555 13.9093 8.02787 15.3286 9.99983 15.3286V13.3286Z" fill="black" mask="url(#path-2-inside-1_206_1464)"/>
<mask id="path-4-inside-2_206_1464" fill="white">
<path d="M9.99983 10.4171C8.44555 10.4171 7.18555 9.31999 7.18555 7.96714C7.18555 6.61428 8.44555 5.51714 9.99983 5.51714C11.5541 5.51714 12.8141 6.61428 12.8141 7.96714"/>
</mask>
<path d="M9.99983 9.41714C8.86323 9.41714 8.18555 8.64209 8.18555 7.96714H6.18555C6.18555 9.99789 8.02787 11.4171 9.99983 11.4171V9.41714ZM8.18555 7.96714C8.18555 7.29218 8.86323 6.51714 9.99983 6.51714V4.51714C8.02787 4.51714 6.18555 5.93638 6.18555 7.96714H8.18555ZM9.99983 6.51714C11.1364 6.51714 11.8141 7.29218 11.8141 7.96714H13.8141C13.8141 5.93638 11.9718 4.51714 9.99983 4.51714V6.51714Z" fill="black" mask="url(#path-4-inside-2_206_1464)"/>
<path d="M10 5.51713V4.34999" stroke="black"/>
<path d="M10 15.4957V14.3286" stroke="black"/>
</svg>
