<svg width="28" height="28" viewBox="0 0 28 28" fill="none" xmlns="http://www.w3.org/2000/svg">
<circle cx="14" cy="14" r="13.45" fill="#F96161" stroke="#282828" stroke-width="1.1"/>
<path d="M17.089 16.525L14.4349 13.5579V19.8226H17.7847L17.089 16.525Z" fill="#FDFDFD"/>
<path d="M13.5652 13.5579L10.9111 16.525L10.2154 19.8226H13.5652V13.5579Z" fill="#FDFDFD"/>
<path d="M10.4104 15.784L14.0001 11.7664L17.5899 15.784L20.1396 14.49L14.0001 7.62354L7.86064 14.49L10.4104 15.784Z" fill="#FFC700"/>
<path d="M20.5327 15.2659L17.983 16.5599L18.6543 19.7357L21.3467 19.1096L20.5327 15.2659Z" fill="#FFC700"/>
<path d="M9.34599 19.7357L10.0173 16.5599L7.46761 15.2659L6.65365 19.1096L9.34599 19.7357Z" fill="#FFC700"/>
<path d="M6.66399 14.8588L5.67262 14.3579L6.06569 13.5822L7.05706 14.0831L13.4157 6.96967L12.1669 5.57132L12.8174 4.9939L14.0001 6.31919L15.1828 4.9939L15.8298 5.5748L14.581 6.97315L20.9431 14.0831L21.9345 13.5822L22.3275 14.3579L21.3362 14.8588L22.3728 19.7635L22.5571 20.6192L21.7049 20.8001L21.5275 19.9618L18.3725 20.6957H9.62765L6.47267 19.9618L6.29527 20.8001L5.44304 20.6192L6.66399 14.8588ZM18.6543 19.7357L21.3466 19.1095L20.5327 15.2658L17.9829 16.5598L18.6543 19.7357ZM14.4349 19.8226H17.7847L17.0855 16.525L14.4314 13.5579V19.8226H14.4349ZM17.5899 15.7841L20.1396 14.4901L14.0001 7.62362L7.86058 14.4936L10.4103 15.7841L14.0001 11.7665L17.5899 15.7841ZM13.5653 19.8226V13.5579L10.9112 16.525L10.212 19.8226H13.5653ZM9.34589 19.7357L10.0172 16.5598L7.46752 15.2658L6.65355 19.1095L9.34589 19.7357Z" fill="#282828"/>
</svg>
